<svg xmlns="http://www.w3.org/2000/svg" width="194.07636499729554" height="240.234375" viewBox="0 0 200.00000000000003 247.5668533912903"><defs id="SvgjsDefs1001"></defs><g id="SvgjsG1007" featurekey="wPuqcM-0" transform="matrix(16.185497517863343,0,0,16.185497517863343,32.29343646537443,-150.19662757886059)" fill="#fffeec"><path d="M-0.08 23 c-1.52 -0.2 -2.26 -1.46 -1.76 -3.02 c0.5 -1.58 1.52 -2.7 3.08 -3.28 c0.62 -0.24 0.94 -0.6 1.16 -1.2 c0.48 -1.2 0.98 -2.38 1.5 -3.56 c0.08 -0.16 0.14 -0.48 0.36 -0.38 c0.22 0.08 0.06 0.32 -0.02 0.5 c-0.46 1.06 -0.94 2.12 -1.34 3.2 c-0.1 0.3 -0.84 0.92 0.22 1.06 c0.14 0.02 0.08 0.28 -0.16 0.26 c-0.66 -0.04 -0.76 0.4 -0.92 0.84 l-1.26 3.24 c-0.04 0.12 -0.02 0.32 -0.2 0.28 c-0.22 -0.06 -0.16 -0.28 -0.1 -0.42 c0.38 -1.04 0.78 -2.1 1.18 -3.16 c0.06 -0.14 0.24 -0.3 0.06 -0.44 c-0.14 -0.12 -0.3 0.06 -0.44 0.12 c-1.66 0.68 -2.92 2.42 -2.92 3.94 c0.02 0.76 0.4 1.22 1.08 1.5 c0.94 0.38 1.92 0.26 2.82 -0.08 c3.9 -1.42 6.44 -4.18 7.52 -8.14 c0.76 -2.78 -1.6 -5.04 -4.46 -4.5 c-2.5 0.46 -4.44 1.66 -5.56 4.02 c-0.04 0.08 -0.04 0.22 -0.18 0.18 c-0.14 -0.06 -0.16 -0.22 -0.1 -0.34 c0.28 -0.7 0.68 -1.36 1.24 -1.88 c1.52 -1.48 3.28 -2.48 5.48 -2.46 c2.74 0.02 4.76 2.42 4 5 c-1.26 4.3 -3.9 7.22 -8.2 8.6 c-0.42 0.14 -0.84 0.12 -1.08 0.12 c-0.46 0 -0.74 0.04 -1 0 z"></path></g><g id="SvgjsG1008" featurekey="Li3fkV-0" transform="matrix(1.0993540649038436,0,0,1.0993540649038436,18.06513659414706,225.57977209321342)" fill="#fffeec"><path d="M5.9 18.8 q3.04 0 4.8 -1.54 t1.78 -4.24 q0 -2.88 -1.75 -4.42 t-4.89 -1.56 l-2.76 0 l0 11.76 l2.82 0 z M6.18 5.84 q3.56 0 5.57 1.92 t2.05 5.26 q0 1.96 -0.89 3.55 t-2.56 2.51 t-4.09 0.92 l-4.5 0 l0 -14.16 l4.42 0 z M39.644000000000005 5.84 l0 1.2 l-7.34 0 l0 5.04 l6.88 0 l0 1.2 l-6.88 0 l0 5.52 l7.66 0 l0 1.2 l-8.98 0 l0 -14.16 l8.66 0 z M65.72800000000001 5.84 l0 1.2 l-7.34 0 l0 5.04 l6.88 0 l0 1.2 l-6.88 0 l0 5.52 l7.66 0 l0 1.2 l-8.98 0 l0 -14.16 l8.66 0 z M87.53200000000001 12.08 q1.28 0 2.1 -0.63 t0.84 -1.87 q0 -1.16 -0.82 -1.85 t-2.18 -0.69 l-3 0 l0 5.04 l3.06 0 z M87.19200000000002 5.84 q2.16 0 3.36 0.96 t1.24 2.78 q0 1.7 -1.16 2.69 t-3.02 1.01 l-3.14 0 l0 6.72 l-1.32 0 l0 -14.16 l4.04 0 z M110.51600000000002 15.04 l6.5 0 l-3.2 -7.76 z M114.55600000000003 5.84 l5.96 14.16 l-1.48 0 l-1.54 -3.76 l-7.5 0 l-1.6 3.76 l-1.38 0 l6.18 -14.16 l1.36 0 z M138.10000000000002 5.84 l0 6.24 l0.12 0 l6.86 -6.24 l1.82 0 l-7.16 6.48 l7.56 7.68 l-1.9 0 l-7.18 -7.32 l-0.12 0 l0 7.32 l-1.32 0 l0 -14.16 l1.32 0 z"></path></g></svg>
